<?xml version="1.0" encoding="UTF-8"?>
<svg id="Layer_1" data-name="Layer 1" xmlns="http://www.w3.org/2000/svg" viewBox="0 0 144 39.79">
  <defs>
    <style>
      .cls-1 {
        fill: #25628d;
      }
    </style>
  </defs>
  <path class="cls-1" d="M0,31.99c.8.47,1.85.7,3.16.7s2.41-.44,3.16-1.34c.8-.94,1.2-4.78,1.2-11.53V0h7.03v19.61c0,8.67-.96,14.23-2.88,16.66-1.92,2.34-4.08,3.52-6.47,3.52-1.22,0-2.26-.02-3.13-.07-.87-.05-1.56-.12-2.07-.21v-7.52Z"/>
  <path class="cls-1" d="M23.28,13.43l-.42,2.39c.56-.84,1.43-1.48,2.6-1.9.56-.19,1.24-.32,2.04-.39.8-.07,1.64-.01,2.53.18.89.19,1.77.49,2.64.91.87.42,1.65.98,2.35,1.69,1.45,1.41,2.18,4.97,2.18,10.69s-1.05,9.23-3.16,10.69c-2.11,1.45-4.73,2.16-7.87,2.11-3.14,0-5.86-.35-8.15-1.05v-7.17c1.31.75,3.07,1.2,5.27,1.34,2.2.09,3.91-.12,5.13-.63,1.27-.52,1.85-2.39,1.76-5.62-.05-3.23-.61-5.18-1.69-5.83-1.08-.61-2.19-.71-3.34-.32-1.15.4-2.05,1.23-2.71,2.5l-6.19-3.44L17.45.07h16.73v7.03h-10.33l-.56,6.33Z"/>
  <path class="cls-1" d="M58.38,24.39l.35-8.51-1.76,8.16-3.3,15.47h-3.16l-3.59-15.12-1.97-8.51.35,8.93v14.69h-6.33V.07h7.73l4.22,16.94,1.27,7.31,1.2-7.17L57.39.07h7.31v39.44h-6.33v-15.12Z"/>
  <path class="cls-1" d="M84.42.07v7.03h-10.62v8.58h6.61v7.03h-6.61v9.77h10.62v7.03h-17.65V.07h17.65Z"/>
  <path class="cls-1" d="M85.99.07h10.05c4.5-.05,7.71,1.03,9.63,3.23,1.87,2.16,2.81,7.59,2.81,16.31s-.94,14.23-2.81,16.52c-1.92,2.25-5.09,3.37-9.49,3.37h-10.19V.07ZM93.02,32.48h3c2.09,0,3.51-.44,4.25-1.33.79-.93,1.19-4.7,1.19-11.29s-.37-10.47-1.12-11.36c-.79-.93-2.23-1.4-4.32-1.4h-3v25.38Z"/>
  <path class="cls-1" d="M110.24.07h7.03v39.44h-7.03V.07Z"/>
  <path class="cls-1" d="M135.77.07l8.23,39.44h-7.45l-1.27-7.45h-7.52l-1.27,7.45h-7.45L127.27.07h8.51ZM132.61,16.73l-1.13-6.89-1.05,7.03-1.41,8.58h4.99l-1.41-8.72Z"/>
</svg>